/* XPM */
static char * mwm_oicon_xpm[] = {
"54 54 5 1",
" 	c None",
".	c #F0F0F0",
"+	c #818181",
"@	c #D3D3D3",
"#	c #000000",
".....................................................+",
".@@@@@@@@@@@@@@@@@@@@@@@@@@@@@@@@@@@@@@@@@@@@@@@@@@@@+",
".@##################################################@+",
".@#@@@@@@@@@@@@@@@@@@@@@@@@@@@@@@@@@@@@@@@@@@@@@@@@#@+",
".@#@@@@@@@@@@@@@@@@@@@@@@@@@@@@@@@@@@@@@@@@@@@@@@@@#@+",
".@#@@@@@@@@@@@@@@@@@@@@@@#@@@@@@@@@@@@@@@@@@@@@#@@@#@+",
".@#@@@@@@@@@@@@@@@@@@@@@##@@@@@@@@@@@@@@@@@@@@##@@@#@+",
".@#@@@@################@##@@@@###############@##@@@#@+",
".@#@@@@################@##@@@@##@#@#@#@#@#@##@##@@@#@+",
".@#@@@@################@##@@@@#@#@#@#@#@#@#@#@##@@@#@+",
".@#@@@@################@##@@@@##@#@#@#@#@#@##@##@@@#@+",
".@#@@@@################@##@@@@#@#@#@#@#@#@#@#@##@@@#@+",
".@#@@@@################@##@@@@##@#@#@#@#@#@##@##@@@#@+",
".@#@@@@################@##@@@@#@#@#@#@#@#@#@#@##@@@#@+",
".@#@@@@################@##@@@@##@#@#@#@#@#@##@##@@@#@+",
".@#@@@@################@##@@@@#@#@#@#@#@#@#@#@##@@@#@+",
".@#@@@@################@##@@@@##@#@#@#@#@#@##@##@@@#@+",
".@#@@@@################@##@@@@#@#@#@#@#@#@#@#@##@@@#@+",
".@#@@@@################@##@@@@##@#@#@#@#@#@##@##@@@#@+",
".@#@@@@################@##@@@@#@#@#@#@#@#@#@#@##@@@#@+",
".@#@@@@################@##@@@@###############@##@@@#@+",
".@#@@@@@@@@@@@@@@@@@@@@@@#@@@@@@@@@@@@@@@@@@@@@#@@@#@+",
".@#@@@##################@@@@@#################@@@@@#@+",
".@#@@####################@@@###################@@@@#@+",
".@#@@@@@@@@@@@@@@@@@@@@@@@@@@@@@@@@@@@@@@@@@@@@@@@@#@+",
".@#@@@@@@@@@@@@@@@@@@@@@@@@@@@@@@@@@@@@@@@@@@@@@@@@#@+",
".@#@@@@@@@@@@@@@@@@@@@@@@@@@@@@@@@@@@@@@@@@@@@@@@@@#@+",
".@#@@@@@@@@@@@@@@@@@@@@@@@@@@@@@@@@@@@@@@@@@@@@@@@@#@+",
".@#@@@@@@@@@@@@@@@@@@@@@@#@@@@@@@@@@@@@@@@@@@@@#@@@#@+",
".@#@@@@@@@@@@@@@@@@@@@@@##@@@@@@@@@@@@@@@@@@@@##@@@#@+",
".@#@@@@################@##@@@@###############@##@@@#@+",
".@#@@@@##@#@#@#@#@#@#@#@##@@@@###############@##@@@#@+",
".@#@@@@#@#@#@#@#@#@#@##@##@@@@###############@##@@@#@+",
".@#@@@@##@#@#@#@#@#@#@#@##@@@@###############@##@@@#@+",
".@#@@@@#@#@#@#@#@#@#@##@##@@@@###############@##@@@#@+",
".@#@@@@##@#@#@#@#@#@#@#@##@@@@###############@##@@@#@+",
".@#@@@@#@#@#@#@#@#@#@##@##@@@@###############@##@@@#@+",
".@#@@@@##@#@#@#@#@#@#@#@##@@@@###############@##@@@#@+",
".@#@@@@#@#@#@#@#@#@#@##@##@@@@###############@##@@@#@+",
".@#@@@@##@#@#@#@#@#@#@#@##@@@@###############@##@@@#@+",
".@#@@@@#@#@#@#@#@#@#@##@##@@@@###############@##@@@#@+",
".@#@@@@##@#@#@#@#@#@#@#@##@@@@###############@##@@@#@+",
".@#@@@@#@#@#@#@#@#@#@##@##@@@@###############@##@@@#@+",
".@#@@@@##@#@#@#@#@#@#@#@##@@@@###############@##@@@#@+",
".@#@@@@################@##@@@@###############@##@@@#@+",
".@#@@@@@@@@@@@@@@@@@@@@@@#@@@@@@@@@@@@@@@@@@@@@#@@@#@+",
".@#@@@##################@@@@@#################@@@@@#@+",
".@#@@####################@@@###################@@@@#@+",
".@#@@@@@@@@@@@@@@@@@@@@@@@@@@@@@@@@@@@@@@@@@@@@@@@@#@+",
".@#@@@@@@@@@@@@@@@@@@@@@@@@@@@@@@@@@@@@@@@@@@@@@@@@#@+",
".@#@@@@@@@@@@@@@@@@@@@@@@@@@@@@@@@@@@@@@@@@@@@@@@@@#@+",
".@##################################################@+",
".@@@@@@@@@@@@@@@@@@@@@@@@@@@@@@@@@@@@@@@@@@@@@@@@@@@@+",
"++++++++++++++++++++++++++++++++++++++++++++++++++++++"};
