/* XPM */
static char * odesk_xpm[] = {
"57 41 4 1",
" 	c None",
".	c #41A2C3",
"+	c #000000",
"@	c #CFCFCF",
"                                   +++                   ",
"                                +++...++                 ",
"                             +++....+...+++              ",
"                          +++....+++@++....++            ",
"                       +++....+++@@@@@@+++...+++         ",
"                    +++.....++@@@@@@@@@@@@++....++       ",
"                 +++....+++...+++@@@@@@@@@@@+++...+++    ",
"              +++....+++@@@++....++@@@@@@@@@@@@++....++  ",
"           +++....+++@@@@@@@@+++...+++@@@@@@+++........++",
"        +++......+@@@@@@@@@@@@@@+.....++@+++........+++@+",
"     +++.........+@@@@+++@@@@@@@+.......+........+++@@@++",
"  +++.............++++@@@++@@+++..............+++@@@+++@+",
"++..............++@@@@@@@@@+++.............+++@@@+++@@@@+",
"+@++...........+@@@@@@@@@@@@@@+.........+++@@@+++@@@@@@@+",
"+@@@+++........+@@@@@@@@@@@@@@+......+++@@@+++@@@@@@@@@@+",
"+@@@@@@++.......+++@@@@@@@@+++....+++@@@+++@+@@@@@@@@@@@+",
"+@@@@@@@@+++.......++@@@+++....+++@@@+++@@@@+@@@@@@@@@@++",
"+@@@@@@@@@@@++.......+++....+++@@@+++@@@@@@@+@@@@@@@+++@+",
"+@@@@@@@@@@@@@+++........+++@@@+++@@@@@@@@@@+@@@@+++@@@@+",
"+@@@@++@@@@@@@@@@++...+++@@@+++@@@@@@@@@@@@@+@+++@@@@@@@+",
"+@@@@++@@@@@@@@@@@@+++@@@+++@@@@@@@@@@@@@@@@++@@@@@@@@@@+",
"+@@@@++@@@@@@@@@@@@@+@+++@@@@@@@@@@@@@@@@@@@+@@@@@@@@@@@+",
"+@@@@@+@@@@@@++@@@@@++@@+@@@@@@@@@@@@@@@@@@@+@@@@@@@@@@++",
"+@@@@@++@@@@@++@@@@@+@@@+@@@@@@@@@@@@@@@@@@@+@@@@@@@+++@+",
"+@@@@@++@@@@@++@@@@@+@@+++@@@@@@@@@@@@@@@@@@+@@@@+++@@@@+",
"+@@@@@@+@@@@@+@@@@@@+++   ++@@@@@@@@@@@@@@@@+@+++@@@@@@@+",
"+@@@@@@++@@@++@@@@@@+       +++@@@@@@@@@@@@@++@@@@@@@@@@+",
"+@@@@@@++@@@++@@@@@@+          ++@@@@@@@@@@@+@@@@@@@@@@@+",
"+@@@@@@++@@++@@@@@@@+            +++@@@@@@@@+@@@@@@@@@+++",
"+@@@@@@@++@++@@@@@@@+               ++@@@@@@+@@@@@@+++   ",
"+@@@@@@@++@++@@@@@@@+                 +++@@@+@@@@++      ",
"+@@@@@@@@+++@@@@@@@@+                    ++@+@+++        ",
"++@@@@@@@++@@@@@@@@@+                      +++           ",
"  ++@@@@@@+@@@@@@@@@+                                    ",
"    ++@@@@@@@@@@@@@@+                                    ",
"      +++@@@@@@@@@@@+                                    ",
"         ++@@@@@@@@@+                                    ",
"           +++@@@@@@+                                    ",
"              ++@@@@+                                    ",
"                ++@@+                                    ",
"                  +++                                    "};
